<svg width="48" height="48" viewBox="0 0 48 48" fill="none" xmlns="http://www.w3.org/2000/svg">
<g clip-path="url(#clip0_2544_721)">
<path d="M22.0591 43.5047C19.0464 43.2161 15.9964 42.1343 13.3764 40.4247C11.1809 38.9929 10.6855 38.4034 10.6855 37.2284C10.6855 34.8679 13.2809 30.7329 17.7218 26.0202C20.2432 23.3429 23.7559 20.2065 24.1355 20.2911C24.8746 20.4561 30.7791 26.2156 32.99 28.9275C36.4855 33.2138 38.0918 36.7247 37.2755 38.2897C36.655 39.4793 32.8041 41.8047 29.9755 42.6979C27.6437 43.4343 24.5814 43.7461 22.0591 43.5047ZM7.72003 34.7743C5.89548 31.9752 4.97366 29.2197 4.52912 25.2343C4.38184 23.9184 4.43366 23.1661 4.8623 20.4643C5.39548 17.1006 7.3123 13.2052 9.61684 10.8097C10.5978 9.79155 10.685 9.76427 11.8814 10.1688C13.3314 10.6597 14.8814 11.7306 17.2859 13.9052L18.6905 15.1752L17.9223 16.1161C14.3641 20.4843 10.6087 26.6797 9.19503 30.5115C8.42684 32.5934 8.11775 34.6843 8.44957 35.5547C8.6723 36.1429 8.46775 35.9238 7.71775 34.7756L7.72003 34.7743ZM39.7441 35.2502C39.9246 34.3702 39.6964 32.7547 39.1623 31.1247C38.0055 27.5952 34.1378 21.0293 30.5864 16.5647L29.4682 15.1593L30.6782 14.0488C32.2573 12.5988 33.3537 11.7306 34.5373 10.9929C35.4705 10.4111 36.8046 9.89609 37.3782 9.89609C37.7314 9.89609 38.9764 11.1915 39.9809 12.6006C41.5373 14.7825 42.6818 17.4325 43.2618 20.187C43.6368 21.9688 43.6682 25.7779 43.3223 27.5552C43.0359 29.0134 42.4359 30.9034 41.8541 32.1856C41.4132 33.1461 40.3268 35.012 39.8496 35.6193C39.6041 35.9315 39.6041 35.9311 39.7405 35.2575L39.7441 35.2502ZM22.3818 9.22973C20.7428 8.39791 18.2146 7.50473 16.8182 7.26382C16.3291 7.17973 15.4941 7.132 14.9637 7.15927C13.8109 7.21745 13.8623 7.15745 15.7105 6.28427C17.2468 5.55836 18.5287 5.13155 20.2696 4.76609C22.2264 4.35473 25.9059 4.35018 27.8318 4.75609C29.9114 5.19473 32.3609 6.10609 33.7409 6.95609L34.1518 7.20791L33.2109 7.16064C31.34 7.06609 28.6137 7.822 25.6864 9.24564C24.8037 9.67564 24.0364 10.0184 23.98 10.0093C23.9241 9.99836 23.2046 9.64791 22.38 9.22973H22.3818Z" fill="white"/>
</g>
<defs>
<clipPath id="clip0_2544_721">
<rect width="40" height="40" fill="white" transform="translate(4 4)"/>
</clipPath>
</defs>
</svg>
