<svg width="48" height="48" viewBox="0 0 48 48" fill="none" xmlns="http://www.w3.org/2000/svg">
<path d="M24 44C35.0457 44 44 35.0457 44 24C44 12.9543 35.0457 4 24 4C13.9401 4 5.61493 11.4274 4.20908 21.0975L15.701 26.4562C16.409 26.1623 17.1856 26 18 26C18.3755 26 18.7429 26.0345 19.0993 26.1005L23.0037 20.2439C23.0012 20.1629 23 20.0816 23 20C23 15.5817 26.5817 12 31 12C35.4183 12 39 15.5817 39 20C39 24.4183 35.4183 28 31 28C30.6955 28 30.3949 27.983 30.0993 27.9499L23.9233 31.0378C23.9738 31.3511 24 31.6725 24 32C24 35.3137 21.3137 38 18 38C15.2647 38 12.9569 36.1696 12.2346 33.6669L5.01211 30.299C7.65118 38.2584 15.1551 44 24 44Z" fill="white"/>
<path fill-rule="evenodd" clip-rule="evenodd" d="M31 24C33.2091 24 35 22.2091 35 20C35 17.7909 33.2091 16 31 16C28.7909 16 27 17.7909 27 20C27 22.2091 28.7909 24 31 24ZM31 26C34.3137 26 37 23.3137 37 20C37 16.6863 34.3137 14 31 14C27.6863 14 25 16.6863 25 20C25 23.3137 27.6863 26 31 26Z" fill="white"/>
<path d="M14.11 32.9357C14.5313 34.6935 16.1131 36 18 36C20.2091 36 22 34.2091 22 32C22 29.7909 20.2091 28 18 28C17.3606 28 16.7563 28.15 16.2203 28.4167L18.9078 29.6699C19.8397 30.0332 20.5 30.9395 20.5 32C20.5 33.3807 19.3807 34.5 18 34.5C17.5493 34.5 17.1264 34.3807 16.7612 34.172L14.11 32.9357Z" fill="white"/>
</svg>
